<?xml version="1.0" encoding="utf-8"?>
<!-- Generator: Adobe Illustrator 27.1.1, SVG Export Plug-In . SVG Version: 6.00 Build 0)  -->
<svg version="1.1" id="Layer_1" xmlns="http://www.w3.org/2000/svg" xmlns:xlink="http://www.w3.org/1999/xlink" x="0px" y="0px"
	 viewBox="0 0 700 199" style="enable-background:new 0 0 700 199;" xml:space="preserve">
<style type="text/css">
	.st0{fill:none;stroke:#DA4899;stroke-width:0.2;}
	.st1{fill:#BBBDBF;}
	.st2{fill:#FFFFFF;}
	.st3{fill:#DA322B;}
	.st4{fill:#E6E7E8;}
	.st5{fill:#E98F38;}
	.st6{fill:#ECE84E;}
	.st7{fill:#A6A8AB;}
</style>
<g>
	<g>
		<path class="st0" d="M161.4,84.3"/>
		<polygon class="st1" points="59.1,72 2.6,45 2.6,100.1 59.1,127.1 		"/>
		<path class="st2" d="M1.2,42.8C0.5,43.3,0,44.1,0,45v55.1c0,1,0.6,1.9,1.5,2.4L58,129.4c0.8,0.4,1.8,0.3,2.5-0.1
			c0.8-0.5,1.2-1.3,1.2-2.2V72c0-1-0.6-1.9-1.5-2.4L3.8,42.7C2.9,42.3,2,42.3,1.2,42.8z M5.2,49.2c6.4,3,48.6,23.2,51.2,24.4
			c0,2.9,0,42.4,0,49.3c-6.4-3-48.6-23.2-51.2-24.4C5.2,95.6,5.2,56.1,5.2,49.2z"/>
		<polygon class="st3" points="115.6,98.9 59.1,72 14.5,113.1 71,140 		"/>
		<path class="st2" d="M57.3,70l-44.6,41.1c-0.6,0.6-0.9,1.5-0.8,2.3c0.1,0.9,0.7,1.6,1.5,2l56.5,26.9c1,0.5,2.1,0.3,2.9-0.4
			l44.6-41.1c0.6-0.6,0.9-1.5,0.8-2.3c-0.1-0.9-0.7-1.6-1.5-2L60.2,69.6C59.3,69.1,58.1,69.3,57.3,70z M59.6,75.1
			c2.8,1.3,45.4,21.6,51.4,24.5c-4.8,4.5-38.1,35.1-40.4,37.3c-2.8-1.4-45.4-21.7-51.4-24.5C24,107.9,57.3,77.2,59.6,75.1z"/>
		<polygon class="st1" points="71,140 14.5,113.1 14.5,168.2 71,195.1 		"/>
		<path class="st2" d="M13.1,110.9c-0.8,0.5-1.2,1.3-1.2,2.2v55.1c0,1,0.6,1.9,1.5,2.4l56.5,26.9c0.8,0.4,1.8,0.3,2.5-0.1
			c0.8-0.5,1.2-1.3,1.2-2.2V140c0-1-0.6-1.9-1.5-2.4l-56.5-26.9C14.8,110.3,13.9,110.4,13.1,110.9z M17.1,117.2
			c6.4,3,48.6,23.2,51.2,24.4c0,2.9,0,42.4,0,49.3c-6.4-3-48.6-23.2-51.2-24.4C17.1,163.6,17.1,124.1,17.1,117.2z"/>
		<polygon class="st4" points="115.6,98.9 71,140 71,195.1 115.6,154 		"/>
		<path class="st2" d="M113.8,97l-44.6,41.1c-0.5,0.5-0.8,1.2-0.8,1.9v55.1c0,1,0.6,2,1.6,2.4c1,0.4,2.1,0.2,2.8-0.5l44.6-41.1
			c0.5-0.5,0.8-1.2,0.8-1.9V98.9c0-1-0.6-2-1.6-2.4C115.7,96.1,114.6,96.3,113.8,97z M113,104.9c0,9.3,0,46,0,48
			c-1.5,1.3-32.4,29.8-39.3,36.3c0-9.3,0-46,0-47.9C75.1,139.8,106,111.3,113,104.9z"/>
		<polygon class="st4" points="160.2,57.8 115.6,98.9 115.6,154 160.2,112.9 		"/>
		<path class="st2" d="M158.4,55.9L113.8,97c-0.5,0.5-0.8,1.2-0.8,1.9V154c0,1,0.6,2,1.6,2.4c1,0.4,2.1,0.2,2.8-0.5l44.6-41.1
			c0.5-0.5,0.8-1.2,0.8-1.9V57.8c0-1-0.6-2-1.6-2.4C160.3,55,159.2,55.2,158.4,55.9z M157.6,63.8c0,9.3,0,46,0,47.9
			c-1.5,1.3-32.3,29.8-39.3,36.3c0-9.3,0-46,0-47.9C119.7,98.7,150.6,70.2,157.6,63.8z"/>
		<polygon class="st5" points="160.2,57.8 103.7,30.9 59.1,72 115.6,98.9 		"/>
		<path class="st2" d="M101.9,29L57.3,70c-0.6,0.6-0.9,1.5-0.8,2.3c0.1,0.9,0.7,1.6,1.5,2l56.5,26.9c1,0.5,2.1,0.3,2.9-0.4L162,59.7
			c0.6-0.6,0.9-1.5,0.8-2.3c-0.1-0.9-0.7-1.6-1.5-2l-56.5-26.9C103.9,28.1,102.7,28.2,101.9,29z M104.2,34
			c2.8,1.3,45.4,21.6,51.4,24.5c-4.8,4.5-38.1,35.2-40.4,37.3c-2.8-1.4-45.4-21.7-51.4-24.5C68.6,66.8,101.9,36.1,104.2,34z"/>
		<polygon class="st5" points="103.7,30.9 47.2,4 2.6,45 59.1,72 		"/>
		<path class="st2" d="M45.4,2L0.8,43.1c-0.6,0.6-0.9,1.5-0.8,2.3c0.1,0.9,0.7,1.6,1.5,2L58,74.3c1,0.5,2.1,0.3,2.9-0.4l44.6-41.1
			c0.6-0.6,0.9-1.5,0.8-2.3c-0.1-0.9-0.7-1.6-1.5-2L48.3,1.6C47.4,1.1,46.2,1.3,45.4,2z M47.7,7.1c2.8,1.3,45.4,21.6,51.4,24.5
			C94.2,36,60.9,66.7,58.6,68.8c-2.8-1.4-45.4-21.7-51.4-24.5C12.1,39.9,45.4,9.2,47.7,7.1z"/>
		<path class="st2" d="M45.2,51.5L38,48.1L64.1,24l7.4,3.5L45.2,51.5z"/>
		<path class="st2" d="M129.2,65.7L109,55.9L97.8,66.5l20.3,9.5l-5.8,5.3L91.8,71.1c-5.2-2.8-5.9-6-2-9.6l10.1-9.4
			c1.8-1.7,3.8-2.6,6.1-2.8c2.3-0.3,4.7,0.2,7.2,1.4l21.1,10.2L129.2,65.7z"/>
		<path class="st6" d="M72.7,118.6c-4.3,4-8.5,4.8-12.6,2.6L39.6,111l25.2-22.9l19.6,10c2.1,1,3.1,2.4,3.1,4.1c0,1.7-1.9,4.4-4,6.4
			L72.7,118.6z M63.7,115l13.1-11.9l-10.6-5.6l-13.1,11.9L63.7,115z"/>
	</g>
	<g>
		<polygon class="st6" points="353.9,68.3 358.4,81.3 372.2,81.6 361.2,89.9 365.2,103.1 353.9,95.2 342.6,103.1 346.6,89.9 
			335.6,81.6 349.4,81.3 		"/>
		<g>
			<g>
				<path class="st7" d="M198.5,59.1h10.8v53.2h-10.8V59.1z"/>
				<path class="st7" d="M257.2,68.5c-0.9-1.8-2.6-2.6-5-2.6c-1.3,0-2.4,0.4-3.3,1.1c-0.9,0.7-1.5,1.9-2,3.5c-0.5,1.6-0.8,3.7-1,6.3
					c-0.2,2.6-0.3,5.8-0.3,9.6c0,4,0.1,7.3,0.4,9.8c0.3,2.5,0.7,4.4,1.3,5.8c0.6,1.4,1.3,2.3,2.2,2.8c0.9,0.5,1.9,0.7,3,0.7
					c0.9,0,1.8-0.2,2.6-0.5c0.8-0.3,1.5-1,2.1-1.9c0.6-1,1.1-2.3,1.4-4.1c0.3-1.8,0.5-4.1,0.5-7h10.8c0,2.9-0.2,5.6-0.7,8.2
					c-0.4,2.6-1.3,4.8-2.5,6.8c-1.2,1.9-2.9,3.4-5.1,4.5c-2.2,1.1-5.1,1.6-8.6,1.6c-4,0-7.2-0.6-9.6-1.9c-2.4-1.3-4.2-3.2-5.5-5.6
					c-1.3-2.4-2.1-5.3-2.5-8.7c-0.4-3.4-0.6-7.1-0.6-11.2c0-4,0.2-7.7,0.6-11.1c0.4-3.4,1.2-6.3,2.5-8.8c1.3-2.4,3.1-4.3,5.5-5.7
					c2.4-1.4,5.6-2,9.6-2c3.8,0,6.8,0.6,9.1,1.9c2.2,1.2,3.9,2.8,5,4.7c1.1,1.9,1.8,4,2,6.2c0.3,2.2,0.4,4.3,0.4,6.2h-10.8
					C258.6,73.1,258.1,70.3,257.2,68.5z"/>
				<path class="st7" d="M304.2,59.1c3.7,0,6.7,0.6,9,1.8c2.3,1.2,4.1,3,5.3,5.2c1.3,2.3,2.1,5,2.6,8.2c0.4,3.2,0.7,6.7,0.7,10.7
					c0,4.7-0.3,8.7-0.8,12.2c-0.6,3.5-1.6,6.3-2.9,8.5c-1.4,2.2-3.2,3.9-5.6,5c-2.3,1.1-5.3,1.6-8.9,1.6h-16.9V59.1H304.2z
					 M302.1,104.4c1.9,0,3.4-0.3,4.5-1c1.1-0.6,2-1.7,2.7-3.2c0.7-1.5,1.1-3.5,1.3-5.9c0.2-2.4,0.3-5.5,0.3-9.1c0-3-0.1-5.7-0.3-8
					c-0.2-2.3-0.6-4.2-1.2-5.7c-0.6-1.5-1.5-2.7-2.7-3.4c-1.2-0.8-2.8-1.2-4.8-1.2h-4.5v37.5H302.1z"/>
			</g>
		</g>
		<g>
			<path class="st7" d="M401.6,98.4h0.2l7.9-39.4h11.1l-12.2,53.2h-13.8l-12.2-53.2H394L401.6,98.4z"/>
			<path class="st7" d="M435.7,59.1h10.7v53.2h-10.7V59.1z"/>
			<path class="st7" d="M494.6,67.9h-19v12.5h17.9v8.8h-17.9v14.3h19.8v8.8h-30.5V59.1h29.7V67.9z"/>
			<path class="st7" d="M542.3,67.9h-11.6v44.4H520V67.9h-11.6v-8.8h34V67.9z"/>
			<path class="st7" d="M580.4,95.5h0.1V59.1h9.8v53.2h-12.2L565.1,75h-0.1v37.3h-9.8V59.1h12.4L580.4,95.5z"/>
			<path class="st7" d="M628.7,59.1l14.1,53.2h-11.2l-2.5-11.3H615l-2.5,11.3h-11.2l14.1-53.2H628.7z M627.3,92.2l-5.1-23.9H622
				l-5.1,23.9H627.3z"/>
			<path class="st7" d="M668.7,59.1l7.6,37.6h0.1l7.7-37.6H700v53.2h-9.8V69.8H690l-9.5,42.5h-8.3l-9.5-42.5h-0.1v42.5h-9.8V59.1
				H668.7z"/>
		</g>
	</g>
</g>
</svg>
